<?xml version="1.0" encoding="UTF-8"?>
<svg id="assets" xmlns="http://www.w3.org/2000/svg" viewBox="0 0 714.23 720.52">
  <defs>
    <style>
      .cls-1 {
        fill: #b1dff3;
      }

      .cls-2 {
        fill: #9cb72a;
      }
    </style>
  </defs>
  <circle class="cls-2" cx="356.45" cy="357.78" r="357.78"/>
  <path class="cls-1" d="M712.89,372.44c0-.56-.01-1.15-.02-1.75v-5.1c.03-1.55-.01-3.14,0-4.69.04-4.56.14-15.36,0-18.76-.02-.48-.77,1.97-1.56-9.38-.07-1.03.08-2.1,0-3.13-27.01-19.21-21.77-1.39-35.96-7.82-14.69-21.41-37.1-19.28-53.93-32.83-4.96-1.11-8.79,2.35-10.94,1.56-16.22-5.96-19.97-17.41-22.67-14.07,2.37,18.58,16.62,9.38,19.54,21.89,19.21-12.07,6.3,6.7,27.36,7.04-25.41,5.98,13.33,5.93-18.76,32.05-7.97,6.48-27.75,19.64-37.52,17.2-.7-3.52-2.92-6.41-4.69-9.38-8.4.62-2.87-3.47-3.13-4.69-.65-3.1-24.71-51.58-26.58-53.93-2.82-3.57-5.25-2.32-12.51-10.16-5.72,4.46,5.63,9.23,6.25,10.16,10.83,16.12,18.46,50.01,37.52,71.13.52,0,1.04,0,1.56,0,.8.02,1.25-.26,1.49-.69-.24.44-.69.72-1.49.69.54,1.75,8.86,4.63,9.38,4.69,28.82,3.56,27.87-13.64,28.14,3.13.52,32.46-21.1,44.79-28.14,57.06-25.23,43.95,19.08,53.04-34.39,95.36-3.03,6.05-2.84,12.53-3.13,13.29-2.98,7.83-8.65,35.09-32.05,48.46-17.97,10.27-27.4,5.24-36.74-10.94-2.36-4.1-4.3-10.9-7.82-14.85,2.57-21.89-19.24-55.89-20.32-60.19-.34-1.35.26-3.24,0-4.69-4.11-22.7,5.28-37.39,3.13-46.12-1.18-4.79-9.81-8.19-10.94-10.16-4.49-7.84-2.9-17.29-3.13-25.79-32.23-44.26-56.75,14.64-93.8-31.27-23.13-28.67-5.28-39.44-18.76-48.46l1.56-8.6c9.55-25.79,13.24-34.23,37.52-49.24,2.11-5.84,2.58-12.76,6.25-17.98h0c11.56-16.44,19.58-4.28,28.92-6.25,3.07-.65,44.41-32.21,44.55,8.6,34.63,20.33,38.5,1.83,54.72,2.34,16.56.53,12.24,15.06,34.39-4.69,0-7.51-3.64-6.99-9.38-9.38-3.47-1.45-7.31-2.18-10.94-3.13-.28-.07-.48,3.14-5.47,1.56-14.92-4.72-5-16.62-10.94-18.76-.65-.23-13.03,3.27-13.29,3.91-.46,1.16,11.26,7.34,5.47,10.16-3.01.47-10.55-11.65-13.29-14.07-11.14-9.86-16.47-13.13-29.7-20.32-2.29,12.47,15.77,12.76,17.2,16.41,3.79,9.7-21.49,8.27-22.67-14.85l-30.48,15.63c-1.59,2.68-2.98,5.18-4.69,7.82-8.91,13.76-20.8,19.93-34.39,5.47,4.88-7.74.55-10.89,1.56-14.85,7.09-27.84,30.03,15.1,20.32-32.05,21.35-12.18-23.08,6.08,7.82-12.51-2.33-25.85,6.76-3.46,6.25-1.56-.1.38-6.4,3.12-6.25,4.69.75,8.05,28.53-3.57,32.05-21.1,8.62,16.18,29.54,4.3,39.86-4.69,2.9-2.53,1.79-11.95,18.76-9.38,1.41-4.24-27.2-1.81-31.27,0-3.8,1.69-6.88,8.8-10.94,12.51-10.74,9.78-6.55-1.45-11.72-3.13-2.14-.69-15.55,3.69-21.89-1.56-4.03-3.34-1.79-8.74,2.34-12.51,1.33-1.21,18.53-9.46,25.01-23.45h0c43.3-29.62,39.89-12.86,50.03-7.82,8.22,4.09,14.96-4.65,14.07,7.03l10.16-16.41c4.11-.93,9.38,5.98,11.72,6.25,2.1.25,13.13-2.09,18.76-4.69-20.36-14.9-41.61-26.49-64.1-37.52-4.39-1.7-8.81-3.33-13.26-4.9,4.44,1.57,8.86,3.2,13.26,4.9-63.17-30.97-125.09-45.51-196.2-32.83-25.99,4.63-73.72,22.77-94.58,39.08-1.53,1.2-5.31,3.6-6.25,4.69v10.94c1.02.1,2.1-.05,3.13,0,13.11-8.95,16.4,2.55,13.29,4.69-19.28-16.25-11.53,17.12,9.38,0,9.32,6.81,39.92-7.46,16.41,7.04l2.34,2.34c28.43-13.65,13.33,18.37,11.73,19.54-2.99,2.19-13.02-1.16-14.07,3.13-1.32,5.42,19.49,3.87,13.29,7.04-13.24,6.75-59.16-2.82-43.77-7.82.67-.22,6.82-.15,13.29-1.56,2.71-5.54,8.57-6.89,14.07-6.25.05-.15,3.19.46,3.13-.78-.49-10.16-10.99-15.27-20.32-11.72-15.62,5.94,14.31,18.94-10.16,14.07-20.52,22.77-48.49,24.04-39.86,42.99,11.86,26.08,35.47-30.39,49.24-25.79,2.51.84,3.69,8.45,6.25,9.38,3.89,1.42,8.5-2.39,12.51-1.56,8.27,1.7,19.17,26.95,11.72,31.27-10.18,1.48-22.23,3.02-34.39,7.82,4.76,7.81,17.65-2.77,0,14.07,44.01,1.56-33.01,29.74-4.69,3.91-5.31-8.19-11.66,7.8-27.36,21.1-3.9,3.31-14.31,8.57-22.67,15.63-3.94,3.33-4.61,10.52-8.6,14.07-5.35,3.34-10.98,6.24-16.41,9.38-1.48,4.8-12.92,8.24-14.07,11.72-.42,1.27,2.43,25.43,3.13,26.58.37.61,15.78,3.79,5.47,8.6-14.96,6.98-13.9-17.29-16.41-25.01-15.2-3.03-36.83-4.67-49.24,6.25-4.62,4.07-14.85,33.01-7.03,35.96,3.66.84,4.82,4.12,12.51-1.56,1.82-1.35,24.04-33.53,15.63,13.29,24.95.18,15.62,10.71,15.63,24.23,0,4.59-.39,10.1,4.69,12.51,3.57-.44,16.56-.17,18.76,3.13.19-.94,7.08-14.05,8.6-17.2,20.68-2.22,34.61,12.63,53.15,7.82,27,32.25,29.13,17.33,39.08,20.32,23.08,6.94-13.54,43.6,42.21,42.21,7.22,3.69,37.67,17.51,39.86,22.67,1.12,2.63-1.75,4.47-1.56,5.47.2,1.07,2.22,2.47,1.56,9.38-2.36,24.91-16.27,13.52-14.07,50.03h0c-2.99,6.19-7.45,11.49-14.07,14.07-12.94,13.3-12.15,22.42-26.58,46.9-25.3,42.92-27.5,29.14-35.17,32.83-.47.23-6.97,6.54-7.03,7.04-1.54,12.54,50.43,19.8,7.82,29.7,37.43,31.31-23.37,3.3-20.32-17.2-12.22-10-18.38-28.5-29.7-42.21,1.07-23.91-4.04-45.71-6.25-68.79-16.91-28.53-40.54-37.7-53.15-71.13h0c-2.01-5.33-6.01-13.65-6.25-18.76-1.03-21.69,22.02-36.06,17.2-47.68-4.7-11.31-3.84,10.92-23.45-7.04-5.44-21.83-18.37-10.47-28.92-29.7-18.13-2.31-27.16-13.8-39.86-25.01-.09,1.91-.2,3.83-.32,5.75.12-1.92.23-3.83.32-5.75.47-10.18.63-20.32,1.56-30.48-3.77,8.34-6.12,17-7.82.78-.95,4.97-4.54,11.86-4.69,12.51-2.19,9.21-5.36,33.48-6.25,43.77-.95,10.99-1.52,21.76-1.56,32.83-.01,3.63-.11,7.32,0,10.94.25,8.3.61,18.36,1.56,26.58,1.26,10.83,9.19,47.9,12.51,59.41,4.68,16.26,15.73,42.28,23.45,57.84,1.51,3.04,3.09,6.41,4.69,9.38.13.25,1.15,1.15,3.13,4.69,1.45,2.59,3.16,5.24,4.69,7.82,4.88,8.19,10.1,15.72,15.63,23.45,3.07,4.29,6.11,8.38,9.38,12.51.37.47,1.2,2.68,1.56,3.13,2.99,3.7,6.23,7.38,9.38,10.94.07.08.65.54,1.56,1.56,2.5,2.78,6.46,6.37,9.38,9.38.48.5,1.05,1.04,1.56,1.56,1,1.01,2.12,2.14,3.13,3.13,3.87,3.79,9.13,9.49,12.51,12.51,1.07.96,1.48,1.49,1.56,1.56,3.49,3.05,8.71,6.32,12.51,9.38,2.33,1.88,2.95,2.99,3.13,3.13,8.22,6.46,19.42,14.7,28.14,20.32.8.52,2.31,1.05,3.13,1.56,12.93,8.17,26.84,16.92,40.65,23.45,3.69,1.74,10.82,4.25,15.63,6.25,7.94,3.31,19.26,9.02,20.32,9.38,4.42,1.5,16.72,4.91,21.89,6.25,24.78,6.47,50.98,9.94,76.6,10.94,9.15.36,20.97,1.92,29.7,1.56.87-.04,6.88-2.17,17.2-3.13,8.71-.81,17.95-1.75,26.58-3.13,9.3-1.49,18.96-4.06,28.14-6.25,6.6-1.58,13.89-2.77,20.32-4.69,8.03-2.4,19.74-7.66,28.14-10.94,23.37-9.14,47.73-20.66,68.79-34.39,6.16-4.02,12.8-9.56,18.76-14.07,5.16-3.91,10.72-8.3,15.63-12.51,1.92-1.65,4.99-5.23,7.82-7.82,6.66-6.1,14.12-12.25,20.32-18.76,1.58-1.66,3.35-4.6,6.25-7.82,6.31-6.97,13.01-14.48,18.76-21.89,4.71-6.06,9.82-12.39,14.07-18.76,2.71-4.06,5.31-8.33,7.82-12.51,1-1.66,2.53-3.63,3.13-4.69,1.56-2.75,3.17-6.43,4.69-9.38.11-.22-.06-1.41,1.56-4.69,2.03-4.11,4.44-8.33,6.25-12.51,1.76-4.05,2.46-3.07,3.13-4.69.32-.79,1.52-5.09,3.13-9.38.12-.31.2-2.45,1.66-6.52.98-2.74,1.92-5.5,2.77-8.28,1.55-5.08,1.77-3.78,1.82-3.96,4.16-13.67,4.52-11.86,4.69-12.51.81-3.07,2.03-10.63,3.13-15.63.47-2.15.69-6.5,1.56-10.94,1.12-5.71,2.28-11.38,3.34-17.06.1-.55.2-1.09.3-1.64.73-3.99,1.39-8,1.95-12.04.24-1.73.47-3.47.66-5.21,1.02-9.08,2.67-19.15,3.13-28.14.03-.53.04-1.24.03-2.07,0-.21,0-.42,0-.64,0-.44,0-.91-.01-1.39Z"/>
</svg>