<?xml version="1.0" encoding="UTF-8"?>
<svg id="poster" xmlns="http://www.w3.org/2000/svg" viewBox="0 0 665.73 666.52">
  <defs>
    <style>
      .cls-1 {
        fill: #fff;
      }
    </style>
  </defs>
  <path class="cls-1" d="M484.64,624.74c-52.23,29.94-113.85,44.31-174.09,41.04-3.16-.17-9.4-.6-12.55-.79-3.15-.34-9.36-1.07-12.5-1.41-3.88-.27-14.6-2.24-18.67-2.86-5.95-1.06-12.56-2.72-18.47-4.01-4.44-1.21-10.79-2.97-15.19-4.18-1.73-.59-12.97-4.21-14.98-4.91-5.39-1.95-10.84-4.14-16.21-6.18,0,0-1.44-.64-1.44-.64,0,0-5.77-2.55-5.77-2.55-7.76-3.27-15.21-7.2-22.68-11.07C58.1,565.24-9.35,443.06,1.1,313.48c2.14-24.92,7.05-49.52,14.77-73.26,2.63-7.87,5.54-15.63,8.74-23.27,0,0,.65.25.65.25C6.28,267.37-.02,322.28,7,375.44c8.15,65.49,37.3,128.1,81.45,177.07,2.3,2.64,6.04,6.39,8.48,9,2.31,2.65,6.21,6.21,8.79,8.7,10.11,9.77,21.75,19.49,33.12,27.81,2.52,1.77,7.56,5.4,10.07,7.18,0,0,5.2,3.34,5.2,3.34,13.56,8.86,28.58,17.13,43.36,23.71,0,0,5.63,2.55,5.63,2.55,0,0,1.41.64,1.41.64,1.29.53,3.1,1.21,4.31,1.71,10.96,4.49,23.66,8.9,35.09,12,5.49,1.68,12.4,3.22,18,4.5,4.6,1.2,13.59,2.6,18.22,3.49,3.81.76,8.45,1.1,12.26,1.67,0,0,6.14.79,6.14.79l6.17.48c45.18,3.94,91.26-1.72,134.15-16.42,15.61-5.35,30.79-11.95,45.45-19.54l.33.62h0Z"/>
  <path class="cls-1" d="M42.17,178.37C128.26,8.52,341.61-51.09,504.41,46.53c100.86,60.46,162.88,170.45,161.14,288.15-.81,90.01-40.22,178.3-107.08,238.41-9.13,8.22-18.71,15.92-28.67,23.06,0,0-.42-.56-.42-.56,102.67-77.1,150.97-208.43,122.7-333.63-1.14-5.3-2.95-12.66-4.5-17.75-1.36-5.04-3.68-12.47-5.48-17.48-1.57-4.99-4.45-12.21-6.44-17.15-.93-2.42-2.46-6.03-3.6-8.42C516.74-50.01,176.71-60.85,42.17,178.37h0Z"/>
</svg>