<?xml version="1.0" encoding="UTF-8"?>
<svg id="poster" xmlns="http://www.w3.org/2000/svg" viewBox="0 0 893.78 895.97">
  <defs>
    <style>
      .cls-1 {
        fill: #fff;
      }
    </style>
  </defs>
  <path class="cls-1" d="M11.18,527.41c-13.84-55.26-13.91-114.29-3.03-170.26.99-4.4,3.46-15.38,4.46-19.78,2.02-7.22,4.23-15.62,6.39-22.78,1.44-4.17,5.2-15.13,6.6-19.18,1.62-4.39,5.78-14.37,7.51-18.84,1.66-4.19,3.68-8.22,5.57-12.31,1.63-3.37,4.07-8.89,5.88-12.16.88-1.61,7.09-13.37,7.93-14.9,3.12-5.79,8.75-14.57,12.14-20.25,19.54-30.18,42.94-57.81,69.73-81.36,0,0,.49.5.49.5C52.97,217.84,5.55,332.08,5.23,447.75c-.24,26.64,2.07,53.29,6.64,79.53,0,0-.69.12-.69.12h0Z"/>
  <path class="cls-1" d="M307.84,870.64c-50.11-12.71-97.64-37.25-138.69-68.81-68.31-52.99-120.72-128.44-142.26-212.38,0,0,.66-.22.66-.22,43.76,132.88,150.3,235.81,280.29,281.41h0Z"/>
  <path class="cls-1" d="M889.76,404.06c4.25,29.44,4.57,59.58,2.7,89.25-3.38,44.76-13.84,89.1-30.77,130.79-3.02,6.73-7.21,16.95-10.55,23.5-1.44,2.9-4.34,8.62-5.78,11.52-1.62,3.62-7.25,13.28-9.29,16.95-1.94,3.48-4.43,7.85-6.57,11.09-1.5,2.29-7.29,11.65-8.59,13.64-4.26,6.02-8.72,12.49-13.05,18.42,0,0-7.94,10.16-7.94,10.16-5.18,6.93-13.03,15.59-18.66,22.23-5.07,5.35-10.44,11.09-15.55,16.37,0,0-9.32,8.93-9.32,8.93-6.16,6.11-15.18,13.5-21.74,19.23-8.9,7.08-18.85,14.9-28.32,21.35-24.4,17.3-51.31,31.9-78.79,43.67-3.58,1.69-8.27,3.45-11.93,4.85,0,0-12.03,4.61-12.03,4.61-5.93,2.1-12.38,4-18.36,6-66.96,20.13-142.42,25.74-208.94,10.18,20.92,3.39,42.08,5.27,63.26,5.66,55.06.83,110.32-8.32,162.01-27.35,5.74-2.34,15.15-5.84,20.65-8.25,8.65-3.99,17.47-7.67,25.86-12.19,0,0,11.3-5.8,11.3-5.8,10.79-6.12,22.37-12.88,32.61-19.72,3.61-2.22,7.02-4.74,10.47-7.19,6.25-4.31,14.56-10.51,20.35-15.21,6.81-5.12,15.39-12.8,21.87-18.4,1.63-1.35,5.34-5.02,6.95-6.52,5.49-5.08,13-12.5,18-17.93,1.44-1.55,5.17-5.37,6.57-6.9,3.83-4.52,10.8-12.28,14.53-16.83,2.62-3.3,9.12-11.61,11.79-14.98,68.7-91.14,95.87-199.39,87.27-311.11h0Z"/>
  <path class="cls-1" d="M183.52,93.11C308.32-6.6,482.88-27.16,628.56,37.43c0,0,6.38,2.78,6.38,2.78,0,0,6.26,3.04,6.26,3.04,9.69,4.58,21.49,10.77,30.75,16.2,2.97,1.8,8.99,5.3,11.96,7.09,5.38,3.59,12.18,7.74,17.42,11.47,3.89,2.85,13.2,9.32,16.83,12.3,23.9,18.2,45.99,39.01,65.66,61.69,2.73,3.42,10.69,12.49,13.22,16.06,2.05,2.69,6.39,8.28,8.46,10.98,3.6,5.19,8.45,11.75,11.88,17.05,2.1,3.43,9.11,13.96,11.04,17.59,1.66,2.89,5.29,9.03,6.97,11.95,2.86,5.56,6.92,12.72,9.61,18.38,9.88,20.36,18.7,42.44,25.33,64.09,2.02,6.14,3.87,13.67,5.58,19.87,1.56,6.13,3.18,14.28,4.54,20.11,0,0-.68.16-.68.16-4.34-17.75-9.52-35.3-15.83-52.45-3.2-8.35-6.65-17.19-10.38-25.36-1.75-3.91-3.83-8.74-5.71-12.46-2.47-4.74-6.78-13.95-9.36-18.3-1.64-3.03-4.98-8.98-6.63-11.99-1.77-2.96-5.35-8.76-7.12-11.71-2.02-3.66-8.83-13.47-11.24-17.21-3.52-5.18-8.34-11.54-12.02-16.67C693.63,40.49,513.71-22.8,340.9,19.52c-5.17,1.31-11.46,3.13-16.54,4.45-6.31,1.93-13.36,4.07-19.6,6.2-12.16,4.25-26.5,9.68-38.21,15.12-12.31,5.37-24.94,11.99-36.68,18.53-15.87,9.06-31.21,19.03-45.94,29.85,0,0-.42-.56-.42-.56h0Z"/>
</svg>