<?xml version="1.0" encoding="UTF-8"?>
<svg id="poster" xmlns="http://www.w3.org/2000/svg" viewBox="0 0 1047.56 1039.13">
  <defs>
    <style>
      .cls-1 {
        fill: #fff;
      }
    </style>
  </defs>
  <path class="cls-1" d="M472.81,1039.48c-5.75-.47-18.04-1.7-23.46-2.15-4.6-.58-18.41-2.56-23.35-3.32-2.03-.23-5.66-1.04-7.73-1.42-14.2-2.58-28.3-5.89-42.25-9.5-6.99-2.1-15.72-4.6-22.69-6.71-6.22-2.16-12.42-4.34-18.61-6.56-4.02-1.31-10.66-4.21-14.68-5.8-4.36-1.83-10.41-4.12-14.55-6.14-3.18-1.54-15.18-6.99-17.92-8.31,0,0-3.51-1.81-3.51-1.81,0,0-7.01-3.65-7.01-3.65-2.62-1.41-8.06-4.16-10.52-5.48-1.84-1.13-14.91-8.56-17.11-9.9-3.76-2.05-9.72-6.05-13.42-8.38-95.86-61.11-169.8-155.66-206.98-263.02-2.62-7.06-6.14-19.28-8.49-26.43-1.47-5.59-3.52-13.6-4.98-19.19-1.7-5.97-3.74-17.26-5.09-23.23-1.96-8.85-3.09-18.41-4.65-27.34,0,0-.31-1.96-.31-1.96,0,0-.23-1.97-.23-1.97-11.88-91.31.61-186.06,37.83-270.41,5.18-11.86,11.15-23.87,17.23-35.29,0,0,.62.31.62.31-28.11,56.02-45.86,117.19-52.08,179.55-1.59,15.45-2.45,31.38-2.58,46.9-.17,10.44.34,20.88.57,31.32.36,5.66,1.34,18.08,1.69,23.43.56,4.73,2.13,18.29,2.77,23.33.53,4.19,1.83,11.17,2.52,15.46,1.3,8.73,4.21,21.89,6.17,30.7.44,2.09,1.25,5.48,1.87,7.6,1.46,5.54,3.6,13.41,5.05,18.91,1.59,4.96,5.53,17.42,7.12,22.39,1.91,5.26,4.82,13.07,6.77,18.36,4.72,12.15,9.81,24.21,15.52,35.92,2.07,4.28,4.66,9.98,6.88,14.06,13.16,25.35,28.44,50.13,45.53,72.99,4.13,5.96,12.44,15.79,16.89,21.58,3.64,4.36,9.13,10.44,12.84,14.78,4.73,5.54,13.76,14.61,18.77,19.97,5.17,5.03,11.75,11.26,16.95,16.27,3.94,3.48,13.72,12.02,17.67,15.49,2.25,1.85,6.94,5.52,9.17,7.34,3.28,2.58,8.89,7.24,12.34,9.64,1.12.72,14.61,10.71,15.83,11.52,2.68,1.82,7.22,4.74,9.8,6.48,3.39,2.19,9.59,6.47,13.17,8.48,0,0,13.44,8.04,13.44,8.04,1.12.67,2.23,1.35,3.37,2,3.27,1.78,7.31,3.91,10.35,5.56,0,0,6.9,3.71,6.9,3.71,0,0,3.45,1.84,3.45,1.84,4.33,2.13,13.62,6.5,17.65,8.48,4.36,2.19,9.97,4.37,14.35,6.28,3.15,1.29,11.01,4.8,14.48,5.96,0,0,14.69,5.45,14.69,5.45l3.67,1.36c5.18,1.73,6.67,2.11,11.19,3.59,0,0,7.46,2.38,7.46,2.38,0,0,3.73,1.19,3.73,1.19,11.34,3.06,22.63,6.37,34.15,8.69,0,0,7.65,1.67,7.65,1.67,0,0,3.83.84,3.83.84,0,0,1.91.42,1.91.42,0,0,1.93.33,1.93.33,8.12,1.29,22.62,4.07,30.95,4.82,0,0,15.55,1.89,15.55,1.89,0,0-.07.7-.07.7h0Z"/>
  <path class="cls-1" d="M868.62,138.06c10.98,9.47,22.57,19.98,32.64,30.4,23.89,24.38,45.6,51.6,64.23,80.19,31.4,49.14,54.61,103.76,67.97,160.53,8.79,37.97,13.18,77.07,13.34,116.04-.2,6.5-.25,16.05-.46,22.52-.15,3-1.26,19.15-1.45,22.48-1.11,10.49-2.61,25.5-4.41,35.77-.75,5.03-1.95,12.82-3.06,17.76-1.09,5.01-2.36,12.71-3.63,17.66,0,0-4.28,17.51-4.28,17.51-12.61,46.23-31.28,91.31-56.14,132.32-12.06,20.24-26.46,40.65-41.3,58.95,0,0-2.8,3.52-2.8,3.52,0,0-1.4,1.76-1.4,1.76l-1.47,1.7s-5.89,6.81-5.89,6.81c-5.32,6.37-12.45,13.92-18.23,19.9-33.22,34.26-71.63,64.26-112.92,88.15-48.99,28.44-103.17,48.25-158.62,58.69,0,0-.14-.68-.14-.68,23.2-5.05,46.05-11.59,68.39-19.6,0,0,16.65-6.28,16.65-6.28,3.53-1.61,17.34-7.29,20.46-8.75,6.32-3,13.83-6.57,20.06-9.62,10.26-5.39,21.24-11.21,31.14-17.23,4.5-2.35,17.94-11.26,22.6-14.2.97-.58,2.77-1.84,3.68-2.49,162.68-111.08,247.91-302.44,221.96-497.63-12.18-91.24-49.35-178.73-106.55-250.86-10.81-13.67-23.01-27.67-35.2-40.12-5.48-5.64-13.24-13.31-19.1-18.66,0,0-6.55-6.03-6.55-6.03,0,0,.47-.52.47-.52h0Z"/>
  <path class="cls-1" d="M157.02,157.77C297.66,4.84,525.19-41.63,715.55,40.27c17.77,7.65,35.36,16.56,52.11,26.25,3.85,2.33,9.89,6.06,13.56,8.28,0,0-.35.61-.35.61-3.47-1.88-10.61-5.9-13.86-7.67-18.59-9.83-37.97-18.78-57.6-26.31-64-24.7-133.1-36.2-201.65-34.11-134.55,3.86-255.16,58.6-350.74,150.45h0Z"/>
</svg>