<?xml version="1.0" encoding="UTF-8"?>
<svg id="poster" xmlns="http://www.w3.org/2000/svg" viewBox="0 0 454.53 457.33">
  <defs>
    <style>
      .cls-1 {
        fill: #fff;
      }
    </style>
  </defs>
  <path class="cls-1" d="M44.6,353.01C15.26,316.53.12,268.34.98,221.34,1.61,142.4,50.03,64.75,122.38,32.56c0,0,.34.61.34.61C6.78,97.59-25.85,243.7,44.6,353.01h0Z"/>
  <path class="cls-1" d="M444.43,288.73c-12.29,58.03-51.29,109.45-102.65,138.89-54.03,31.44-121.18,37.98-180.32,17.83-2.23-.83-8.29-3.03-10.47-3.84-5.34-2.2-11.77-5.02-16.88-7.68-6.35-3.14-13.34-7.13-19.28-10.98-3.68-2.23-8.6-5.9-12.14-8.38-11.76-8.77-22.58-18.9-32.21-29.9,0,0,.5-.49.5-.49,1.94,1.82,6.01,5.85,7.84,7.57,1.62,1.4,6.48,5.7,8.2,7.18,7.3,5.95,15.5,12.08,23.49,17.06,10.08,6.48,21.11,12.11,32.1,16.88,3.96,1.56,9.57,3.91,13.56,5.17,0,0,6.88,2.33,6.88,2.33,0,0,6.98,1.99,6.98,1.99,119.71,32.89,238.99-37.25,274.4-153.64h0Z"/>
  <path class="cls-1" d="M168.04,13.76c50.13-18.17,107.55-15.22,156.21,6.39,71.47,31.13,122.73,100.92,129.4,178.7,1.55,18.45,1.01,37.03-2.39,55.05,0,0-.7-.08-.7-.08,2.32-20.36,1.67-41.03-1.54-61.25-9.44-58.79-43.26-112.09-92.03-146.17-20.37-14.41-43.39-25.38-67.43-32.09-21.88-6.32-44.75-8.78-67.49-8.24-18.2.57-36.33,3.38-53.85,8.36l-.19-.67h0Z"/>
</svg>