<?xml version="1.0" encoding="UTF-8"?>
<svg id="poster" xmlns="http://www.w3.org/2000/svg" viewBox="0 0 1097.39 282.88">
  <defs>
    <style>
      .cls-1 {
        fill: #fff;
      }
    </style>
  </defs>
  <path class="cls-1" d="M75.93,110.74c19.71,44.26,39.41,88.52,59.12,132.79-2.4,5.56-3.58,8.35-5.89,13.92-17.39,8.1-34.54,16.57-51.55,25.44-1.02-4.1-1.52-6.16-2.52-10.27C52.49,229.68,29.9,186.74,7.3,143.79c-2.91-3.01-4.37-4.51-7.3-7.5,19.8-10.35,39.78-20.21,60.04-29.63,6.39,1.58,9.57,2.4,15.89,4.08ZM92.4,251.77c6.17-3.06,9.26-4.56,15.47-7.51.52-1.31.79-1.97,1.31-3.28-17.01-36.06-34.02-72.11-51.03-108.17-1.46-.37-2.19-.56-3.65-.93-6.96,3.3-10.42,4.99-17.34,8.41-.62,1.38-.92,2.07-1.53,3.44,17.79,35.68,35.58,71.35,53.37,107.03,1.36.4,2.04.59,3.39.99Z"/>
  <path class="cls-1" d="M94.32,102.5c-2.74-3.2-4.11-4.8-6.87-7.98,23.35-9.85,46.88-19.03,70.73-27.6,4.76,8.04,7.12,12.07,11.81,20.14-5.13.77-7.7,1.18-12.84,2.01-11.15,4.03-22.24,8.23-33.26,12.61-.72,1.32-1.07,1.98-1.79,3.3,5.83,14.59,11.66,29.18,17.49,43.78,1.38.48,2.07.72,3.45,1.21,3.53-1.4,5.3-2.1,8.85-3.47,4-2.67,6.01-4,10.05-6.63,3.64,9.73,5.47,14.59,9.11,24.32-4.67.63-7.01.96-11.68,1.65-3.48,1.34-5.21,2.02-8.68,3.4-.65,1.29-.97,1.94-1.62,3.23,5.8,14.52,11.61,29.05,17.41,43.57,1.31.51,1.97.77,3.28,1.28,9.82-3.91,19.72-7.67,29.67-11.25,3.97-2.46,5.96-3.67,9.96-6.09,1.58,9.34,2.39,14.01,4.03,23.33-20.47,7.37-40.67,15.25-60.73,23.69-.6-4.21-.9-6.31-1.48-10.52-18.96-44.66-37.93-89.33-56.89-133.99Z"/>
  <path class="cls-1" d="M325.94,183.65c-4.17-9.88-8.42-19.73-12.68-29.57-1.45-.83-2.17-1.25-3.62-2.07-7.62,1.78-11.42,2.71-19.01,4.64-.91,1.4-1.36,2.1-2.27,3.51.8,10.68,1.66,21.36,2.58,32.03,1.33,2.54,1.99,3.81,3.31,6.35-10.35,2.7-15.52,4.13-25.81,7.11.34-6.01.52-9.01.92-15.02-4.62-48.11-8.15-96.27-10.6-144.54-1.95-3.37-2.93-5.06-4.9-8.43,11.09-2.82,22.18-5.53,33.31-8.13-.19,3.89-.28,5.84-.46,9.73,20.12,43.88,39.23,88.17,57.33,132.91,3.22,5.22,4.82,7.84,7.98,13.08-10.55,2.1-15.81,3.22-26.32,5.61.09-2.88.13-4.33.23-7.21ZM288.97,135.46c4.76-1.19,7.14-1.77,11.92-2.91.77-.9,1.16-1.35,1.94-2.25-6.16-13.73-12.39-27.42-18.71-41.07.69,15.03,1.47,30.05,2.33,45.07,1.01.46,1.52.7,2.53,1.16Z"/>
  <path class="cls-1" d="M409.83,31.33c-5.12-.34-7.69-.5-12.83-.79-11.6,1.54-23.17,3.26-34.72,5.15-.97,1.13-1.45,1.7-2.41,2.83,2.58,15.5,5.16,31,7.74,46.5,1.23.77,1.85,1.15,3.07,1.93,3.7-.61,5.55-.9,9.25-1.48,4.32-1.73,6.49-2.59,10.84-4.27,1.49,10.28,2.23,15.42,3.72,25.7-4.54-.4-6.82-.59-11.38-.94-3.63.56-5.45.85-9.08,1.45-.9,1.12-1.34,1.68-2.23,2.8,3.29,19.73,6.57,39.47,9.86,59.2,1.75,3.87,2.62,5.8,4.36,9.68-10.51,1.72-15.76,2.65-26.23,4.65.3-4.23.45-6.35.77-10.59-8.98-47.69-17.95-95.37-26.93-143.06-1.97-3.71-2.97-5.57-4.96-9.28,24.57-4.56,49.18-8.45,73.97-11.69,2.91,8.87,4.35,13.31,7.2,22.2Z"/>
  <path class="cls-1" d="M456.66,170.08c.39-4.59.59-6.89,1-11.49-12.01-45.9-24.94-91.52-38.82-136.89-2.91-5.47-4.38-8.2-7.35-13.65,10.24-1.22,20.52-2.29,30.79-3.21-.48,2.85-.71,4.27-1.18,7.12,8.93,33.05,17.42,66.19,25.48,99.46,2.84-34.11,6.13-68.17,9.87-102.2-1.01-2.74-1.51-4.1-2.53-6.84,10.37-.68,20.77-1.2,31.15-1.57-2.09,5.76-3.13,8.64-5.16,14.4-6.55,47.03-12.16,94.16-16.82,141.42,1.11,4.48,1.66,6.72,2.75,11.2-9.73.59-19.47,1.34-29.18,2.25Z"/>
  <path class="cls-1" d="M559.68,158.94c-1.77-10.57-3.63-21.13-5.5-31.69-1.21-1.14-1.81-1.71-3.03-2.85-7.78-.02-11.67,0-19.44.13-1.2,1.15-1.8,1.73-2.99,2.89-1.67,10.58-3.28,21.16-4.83,31.76.7,2.78,1.05,4.17,1.75,6.94-10.62.24-15.92.43-26.53.96,1.7-5.76,2.56-8.65,4.32-14.4,6.53-47.87,14.13-95.55,22.79-143.08-1.11-3.73-1.67-5.6-2.8-9.33,11.36-.19,22.7-.27,34.06-.24-1.08,3.75-1.61,5.62-2.67,9.37,9.42,47.33,17.76,94.83,25.04,142.54,1.92,5.82,2.87,8.74,4.73,14.57-10.7-.38-16.06-.5-26.77-.6.75-2.79,1.12-4.18,1.88-6.97ZM534.96,103.54c4.87-.06,7.31-.08,12.19-.09.95-.7,1.43-1.05,2.39-1.75-2.81-14.78-5.71-29.53-8.69-44.28-2.77,14.78-5.46,29.58-8.06,44.39.87.69,1.31,1.03,2.18,1.72Z"/>
  <path class="cls-1" d="M595.6,156.91c2.24-48.47,4.48-96.94,6.72-145.42-1.06-4.16-1.59-6.23-2.67-10.39,10.3.43,20.6,1.02,30.88,1.75-1.44,4.01-2.15,6.02-3.57,10.04-2.97,44.06-5.95,88.12-8.92,132.17.95,1.03,1.42,1.54,2.36,2.57,10.31.7,20.63,1.58,30.91,2.63,4.58-.51,6.87-.75,11.47-1.2-2.58,9.02-3.86,13.54-6.37,22.57-21.3-2.16-42.59-3.77-63.97-4.82,1.25-3.96,1.89-5.95,3.16-9.91Z"/>
  <path class="cls-1" d="M747.55,27.38c-.53-4.26-.8-6.39-1.35-10.64,21.53,3.79,42.93,8.07,64.27,12.83,4.02,5.13,6,7.7,9.92,12.86-5.66,23.55-11.33,47.11-16.99,70.66-5.55,2.97-8.31,4.48-13.79,7.52-1.41,20.86-2.98,41.71-4.71,62.55.36,4.39.54,6.59.87,10.98-10.39-2.52-15.6-3.71-26.03-5.94,1.53-3.69,2.3-5.53,3.84-9.22,1.27-20.43,2.39-40.86,3.36-61.3-.6-.93-.9-1.39-1.5-2.32-2.85-.58-4.27-.87-7.12-1.44-1.23.74-1.85,1.1-3.08,1.84-3.84,19.63-7.68,39.27-11.51,58.9.3,4.15.45,6.23.73,10.38-10.46-2.07-15.7-3.04-26.21-4.83,1.74-3.78,2.62-5.66,4.39-9.43,8.3-47.81,16.6-95.62,24.91-143.43ZM762.35,93.61c7.17,1.42,10.75,2.16,17.9,3.7,1.26-.71,1.9-1.06,3.17-1.77,3.33-15.28,6.66-30.56,9.99-45.85-.91-1.18-1.36-1.77-2.27-2.95-7.49-1.61-11.23-2.39-18.74-3.87-1.3.72-1.95,1.08-3.25,1.81l-9,46.05c.88,1.15,1.33,1.73,2.2,2.88Z"/>
  <path class="cls-1" d="M853.89,205.9c1.36-10.64,2.63-21.29,3.89-31.94-.84-1.45-1.26-2.17-2.1-3.62-7.51-2.3-11.28-3.42-18.82-5.57-1.49.75-2.24,1.13-3.73,1.89-4.69,9.63-9.32,19.29-13.89,28.97-.13,2.86-.2,4.29-.33,7.16-10.32-2.87-15.49-4.24-25.87-6.84,3.31-5.02,4.98-7.53,8.34-12.52,20.2-43.91,41.39-87.31,63.56-130.25.01-3.9.01-5.85,0-9.75,11.03,3.15,22.01,6.4,32.98,9.76-2.13,3.27-3.19,4.9-5.3,8.18-4.65,48.06-10.37,95.96-17.19,143.76.17,6.14.24,9.21.35,15.34-10.26-3.53-15.41-5.22-25.74-8.46,1.53-2.45,2.3-3.67,3.84-6.11ZM846.09,145.63c4.73,1.37,7.09,2.07,11.8,3.49,1.13-.39,1.69-.58,2.82-.97,1.57-14.96,3.06-29.93,4.47-44.92-6.97,13.33-13.87,26.7-20.69,40.12.64.91.96,1.37,1.6,2.28Z"/>
  <path class="cls-1" d="M949.22,70.51c15.85,5.78,31.6,11.85,47.18,18.31,3.07,5.71,4.58,8.57,7.56,14.29-3.28,7.71-4.92,11.57-8.21,19.28-.42,4.18-.64,6.28-1.09,10.45-9.38-4.04-18.83-7.95-28.33-11.7,2.73-3.24,4.09-4.85,6.84-8.08,1.23-3.08,1.85-4.62,3.08-7.7-.71-1.32-1.07-1.98-1.78-3.3-7.2-2.87-10.82-4.27-18.06-7.01-1.42.49-2.12.74-3.54,1.23-14.02,37.32-28.03,74.64-42.05,111.96.63,1.26.94,1.89,1.56,3.15,6.46,2.44,9.68,3.69,16.11,6.25,1.31-.51,1.97-.77,3.28-1.28,1.2-3,1.8-4.5,3-7.5.35-4.18.53-6.28.86-10.47,8.8,3.48,17.56,7.1,26.24,10.84-2.64,3.24-3.95,4.86-6.57,8.11-3.32,7.79-4.98,11.69-8.29,19.48-5.62,2.07-8.41,3.12-13.96,5.27-13.43-5.46-26.91-10.69-40.51-15.72-2.72-5.35-4.1-8.03-6.91-13.36,16.05-45.71,32.11-91.43,48.16-137.14,6.13-2.2,9.21-3.27,15.41-5.39Z"/>
  <path class="cls-1" d="M1023.25,111.3c.48-4.19.71-6.28,1.16-10.47,23.3,10.49,46.23,21.58,68.92,33.33-2.63,8.97-3.97,13.45-6.67,22.39-4.13-3.28-6.21-4.9-10.38-8.13-10.65-5.49-21.39-10.81-32.2-15.96-1.46.37-2.19.55-3.65.92-6.72,14.2-13.44,28.41-20.16,42.61.59,1.34.89,2.01,1.48,3.36,3.46,1.65,5.18,2.48,8.63,4.16,4.72,1.13,7.08,1.72,11.81,2.91-4.65,9.29-6.97,13.94-11.62,23.23-3.69-3.02-5.54-4.51-9.26-7.49-3.38-1.65-5.07-2.46-8.46-4.08-1.39.4-2.09.6-3.48,1-6.69,14.14-13.38,28.28-20.07,42.41.53,1.31.79,1.97,1.31,3.28,9.65,4.58,19.24,9.33,28.72,14.24,4.55,1.27,6.83,1.91,11.39,3.24-5.8,7.5-8.68,11.26-14.41,18.8-19.49-10.07-39.18-19.6-59.17-28.62,2.67-3.3,4.01-4.95,6.71-8.24,19.81-44.3,39.61-88.59,59.42-132.89Z"/>
</svg>