<?xml version="1.0" encoding="UTF-8"?>
<svg id="poster" xmlns="http://www.w3.org/2000/svg" viewBox="0 0 1097.39 282.88">
  <defs>
    <style>
      .cls-1 {
        fill: #13406c;
      }

      .cls-2 {
        fill: #fff;
      }
    </style>
  </defs>
  <g>
    <path class="cls-2" d="M87.68,270.89c-1.97,1.01-4.21,1.22-6.09.59-1.88-.64-3.2-2.06-3.57-3.88-.67-3.3-1.01-4.96-1.67-8.26-18.86-36.46-37.72-72.92-56.57-109.38-2.38-2.33-3.57-3.49-5.96-5.81-1.35-1.31-1.71-3.24-.97-5.25.74-2.01,2.5-3.86,4.78-5.02,19.24-9.71,38.64-18.97,58.3-27.8,1.98-.88,4.14-1.16,5.99-.77,5.95,1.23,8.91,1.87,14.8,3.18,1.89.42,3.31,1.5,3.93,2.98,16.12,38.19,32.25,76.38,48.37,114.57.63,1.48.5,3.21-.34,4.79-2.63,4.93-3.92,7.4-6.47,12.35-.79,1.54-2.2,2.83-3.92,3.6-17.06,7.69-33.9,15.72-50.61,24.14ZM109.3,227.08c-13.27-28.55-26.54-57.11-39.81-85.66-2.83,1.31-4.24,1.98-7.06,3.31,13.46,28.46,26.93,56.92,40.39,85.38,2.59-1.22,3.88-1.83,6.47-3.03Z"/>
    <path class="cls-1" d="M78.35,111.55c5.94,1.21,8.89,1.83,14.78,3.12,16.39,38.07,32.79,76.15,49.18,114.22-2.62,4.95-3.91,7.43-6.46,12.4-17.16,7.73-34.1,15.81-50.91,24.28-.71-3.58-1.06-5.37-1.75-8.96-18.81-37.01-37.62-74.02-56.42-111.03-2.56-2.55-3.85-3.82-6.43-6.36,19.14-9.66,38.44-18.87,58-27.66M101.01,237.62c6.07-2.91,9.12-4.34,15.22-7.14.58-1.17.87-1.75,1.45-2.92-14.15-31.03-28.31-62.07-42.46-93.1-1.35-.29-2.03-.43-3.39-.71-6.73,3.09-10.09,4.67-16.79,7.87-.65,1.22-.98,1.84-1.63,3.06,14.81,30.73,29.61,61.46,44.42,92.18,1.27.3,1.91.45,3.18.75M73.5,100.6c-19.76,8.88-39.26,18.19-58.6,27.95-4.57,2.34-8.11,6.08-9.58,10.1-1.47,4.03-.72,7.89,1.99,10.49,2.2,2.1,3.29,3.16,5.48,5.27,18.9,35.91,37.8,71.83,56.71,107.74.63,3.03.94,4.54,1.58,7.57.76,3.62,3.43,6.45,7.19,7.71,3.77,1.26,8.22.82,12.14-1.18,16.61-8.37,33.35-16.35,50.31-23.99,3.42-1.52,6.22-4.08,7.82-7.15,2.55-4.93,3.85-7.38,6.48-12.29,1.69-3.15,1.97-6.6.73-9.58-15.85-38.3-31.71-76.6-47.56-114.91-1.23-2.98-4.05-5.15-7.84-6.01-5.9-1.33-8.87-1.98-14.82-3.23-3.72-.78-8.05-.23-12.04,1.53h0Z"/>
  </g>
  <g>
    <path class="cls-2" d="M161.37,236.87c-2.05.85-4.31.87-6.13.05-1.82-.82-3.01-2.38-3.19-4.25-.34-3.35-.5-5.03-.82-8.39-15.85-37.82-31.7-75.64-47.56-113.46-2.24-2.46-3.37-3.69-5.62-6.15-1.29-1.4-1.54-3.37-.67-5.33.87-1.96,2.77-3.69,5.14-4.67,22.64-9.24,45.46-17.86,68.56-25.89,3.82-1.31,7.76-.38,9.29,2.17,4.13,6.89,6.19,10.34,10.26,17.25,1.02,1.73.78,3.91-.63,5.81-1.09,1.48-2.77,2.64-4.68,3.29-.55.19-1.12.33-1.71.42-4.55.74-6.82,1.12-11.37,1.91-10.51,3.69-15.76,5.6-26.2,9.56,3.83,10.12,7.66,20.24,11.5,30.36,1.17-.45,1.76-.67,2.94-1.11,3.64-2.24,5.47-3.36,9.13-5.57.56-.34,1.15-.62,1.75-.84,1.62-.59,3.35-.75,4.93-.44,2.17.43,3.8,1.7,4.42,3.45,2.97,8.38,4.46,12.57,7.43,20.94.62,1.74.18,3.75-1.18,5.44-.99,1.23-2.38,2.19-3.95,2.76-.59.21-1.2.37-1.82.47-4.11.62-6.16.95-10.27,1.61-1.14.43-1.72.65-2.86,1.08,3.81,10.06,7.62,20.12,11.43,30.18,9.58-3.63,14.38-5.38,24.02-8.76,3.69-2.1,5.54-3.15,9.25-5.21.48-.26.97-.48,1.48-.66,1.75-.59,3.65-.63,5.29-.06,2.11.73,3.53,2.36,3.78,4.34,1.03,8.08,1.57,12.11,2.66,20.17.4,2.93-1.76,5.91-5.08,7.05-20.05,6.99-39.85,14.47-59.51,22.48Z"/>
    <path class="cls-1" d="M173,74.45c4.18,6.86,6.26,10.29,10.38,17.18-4.92.8-7.38,1.21-12.3,2.06-10.76,3.83-21.46,7.76-32.14,11.8-.74,1.16-1.11,1.75-1.85,2.91,4.85,12.54,9.7,25.08,14.55,37.62,1.29.38,1.94.57,3.23.96,3.44-1.32,5.16-1.97,8.61-3.26,3.95-2.44,5.93-3.64,9.91-6.04,3.03,8.36,4.55,12.53,7.58,20.89-4.5.68-6.76,1.03-11.26,1.76-3.39,1.27-5.08,1.91-8.47,3.21-.68,1.14-1.03,1.71-1.71,2.86,4.83,12.48,9.65,24.96,14.48,37.44,1.24.4,1.85.6,3.09,1.01,9.65-3.72,19.38-7.3,29.15-10.7,3.95-2.25,5.93-3.37,9.9-5.58,1.09,8.07,1.65,12.1,2.79,20.15-20.17,7.03-40.09,14.56-59.87,22.61-.34-3.66-.51-5.49-.84-9.15-15.78-38.4-31.55-76.8-47.33-115.2-2.44-2.71-3.66-4.07-6.11-6.77,22.53-9.2,45.22-17.77,68.2-25.76M169.13,63.11c-23.22,8.08-46.15,16.74-68.91,26.03-4.76,1.97-8.57,5.45-10.31,9.39-1.73,3.93-1.2,7.87,1.4,10.66,2.06,2.21,3.08,3.31,5.13,5.53,15.92,37.24,31.84,74.48,47.76,111.72.31,3.05.47,4.57.8,7.62.4,3.73,2.79,6.84,6.44,8.46,3.65,1.62,8.14,1.57,12.22-.12,19.55-7.96,39.23-15.4,59.16-22.35,6.61-2.26,10.91-8.17,10.15-14.04-1.04-8.07-1.54-12.11-2.52-20.19-.48-3.96-3.28-7.25-7.51-8.72-3.28-1.14-7.09-1.08-10.62.11-1.02.35-2.02.79-2.98,1.32-3.45,1.92-5.17,2.89-8.59,4.85-6.59,2.32-9.88,3.51-16.45,5.94-2.67-7.2-4-10.8-6.67-18,1.52-.24,2.27-.35,3.79-.59,1.24-.19,2.46-.5,3.63-.93,3.11-1.13,5.89-3.04,7.86-5.49,2.72-3.36,3.62-7.37,2.41-10.86-2.91-8.4-4.37-12.6-7.28-20.99-1.21-3.49-4.46-6.07-8.82-6.94-3.17-.63-6.67-.31-9.91.87-1.22.44-2.41,1.01-3.52,1.68-1.37.83-2.05,1.24-3.41,2.07-2.69-7.27-4.04-10.9-6.73-18.17,7.08-2.62,10.63-3.91,17.74-6.41,4.18-.72,6.27-1.08,10.45-1.76,1.16-.19,2.3-.47,3.4-.85,3.8-1.28,7.15-3.6,9.34-6.54,2.82-3.79,3.33-8.14,1.31-11.61-4.03-6.94-6.06-10.4-10.15-17.32-3.02-5.12-10.92-7.02-18.6-4.39h0Z"/>
  </g>
  <g>
    <path class="cls-2" d="M330.78,183.59c-2.13.47-4.33.09-5.96-1.03-1.63-1.12-2.52-2.86-2.4-4.72.13-1.98.2-2.97.33-4.95-3.93-8.66-5.92-12.99-9.93-21.62-4.49,1.04-6.74,1.57-11.22,2.66.36,9.53.56,14.29,1,23.8.96,1.76,1.44,2.64,2.39,4.41.87,1.61.81,3.53-.16,5.23-.97,1.69-2.74,2.98-4.83,3.51-10.13,2.57-15.18,3.91-25.26,6.75-2.21.62-4.53.32-6.25-.82-1.72-1.14-2.63-2.97-2.42-4.93.53-5.02.8-7.53,1.37-12.55-2.8-40.91-4.74-81.83-5.83-122.81-1.52-2.44-2.28-3.66-3.8-6.09-.99-1.58-.91-3.54.23-5.31,1.14-1.77,3.22-3.16,5.64-3.77,10.73-2.65,21.46-5.19,32.23-7.63,2.43-.54,4.91-.23,6.72.85,1.81,1.07,2.76,2.78,2.59,4.64-.27,2.86-.4,4.29-.66,7.14,17.46,37.03,34.11,74.4,49.98,112.14,2.85,4.29,4.26,6.43,7.07,10.74,1.08,1.66,1.11,3.72.1,5.52-1.02,1.8-2.95,3.12-5.2,3.56-10.32,1.99-15.46,3.06-25.74,5.32Z"/>
    <path class="cls-1" d="M297.22,39.53c-.29,3.35-.44,5.03-.72,8.39,17.98,37.42,35.12,75.19,51.46,113.36,2.99,4.43,4.47,6.65,7.41,11.11-10.38,2-15.55,3.07-25.89,5.35.18-2.49.27-3.73.46-6.22-4.5-10.1-6.77-15.15-11.38-25.21-1.38-.69-2.07-1.03-3.45-1.71-7.45,1.69-11.17,2.57-18.59,4.4-.93,1.23-1.39,1.84-2.32,3.08.48,11.04.75,16.56,1.34,27.58,1.2,2.16,1.8,3.24,2.99,5.41-10.19,2.58-15.27,3.94-25.41,6.79.58-5.2.88-7.81,1.5-13.02-2.57-41.49-4.26-82.98-5.06-124.54-1.76-2.87-2.64-4.31-4.41-7.17,10.67-2.63,21.35-5.16,32.06-7.59M295.65,130.76c4.64-1.13,6.97-1.68,11.62-2.75.78-.79,1.17-1.19,1.95-1.98-5.49-11.72-11.06-23.39-16.73-35.02.16,12.94.41,25.87.76,38.81.96.38,1.44.57,2.4.95M294.63,27.84c-10.83,2.46-21.61,5.01-32.39,7.67-4.86,1.22-9.04,4.03-11.32,7.59s-2.41,7.47-.41,10.62c1.28,2.01,1.91,3.01,3.18,5.02,1.35,40.42,3.54,80.76,6.57,121.09-.52,4.84-.77,7.25-1.25,12.09-.39,3.93,1.46,7.58,4.9,9.84,3.45,2.26,8.07,2.86,12.45,1.62,10.02-2.81,15.04-4.16,25.11-6.71,4.14-1.05,7.67-3.61,9.62-6.98,1.95-3.38,2.11-7.22.39-10.45-.73-1.36-1.09-2.04-1.82-3.4-.24-6.15-.36-9.23-.56-15.38,2.6,5.53,3.89,8.3,6.45,13.84-.09,1.47-.14,2.2-.22,3.67-.22,3.73,1.59,7.19,4.86,9.42,3.27,2.23,7.64,2.97,11.88,2.04,10.21-2.25,15.33-3.31,25.58-5.29,4.48-.86,8.33-3.49,10.37-7.07,2.04-3.58,2.02-7.7-.13-11.03-2.67-4.15-4.02-6.22-6.73-10.36-15.39-37.32-31.56-74.27-48.51-110.91.23-2.36.35-3.54.58-5.91.37-3.71-1.5-7.15-5.12-9.31-3.62-2.16-8.61-2.8-13.49-1.72h0Z"/>
  </g>
  <g>
    <path class="cls-2" d="M364.1,176.83c-2.15.4-4.33-.06-5.93-1.24-1.59-1.18-2.42-2.96-2.22-4.82.35-3.35.53-5.02.9-8.37-7.65-40.29-15.3-80.58-22.95-120.87-1.67-2.88-2.5-4.32-4.18-7.19-.96-1.64-.81-3.62.43-5.35,1.24-1.73,3.42-3.02,5.9-3.48,23.76-4.28,47.55-7.93,71.5-10.97,3.96-.48,7.59,1.25,8.55,4.06,2.6,7.6,3.89,11.4,6.43,19,.64,1.9-.04,3.98-1.79,5.55-1.36,1.22-3.22,2.01-5.2,2.24-.57.07-1.16.09-1.74.06-4.55-.22-6.83-.32-11.4-.5-10.92,1.42-16.38,2.19-27.27,3.87,1.65,10.69,3.3,21.39,4.95,32.08,1.22-.19,1.83-.28,3.04-.47,3.87-1.41,5.81-2.11,9.7-3.49.62-.22,1.26-.37,1.9-.46,1.67-.23,3.38-.04,4.84.59,2.03.87,3.35,2.46,3.6,4.3,1.17,8.81,1.76,13.22,2.94,22.03.25,1.84-.59,3.72-2.26,5.09-1.2.99-2.74,1.64-4.36,1.86-.63.09-1.26.11-1.9.07-4-.26-6-.38-10.01-.6-1.18.18-1.78.27-2.96.45,2.37,15.37,4.75,30.74,7.12,46.11,1.46,3.03,2.19,4.55,3.64,7.58.81,1.69.63,3.64-.48,5.29s-3.01,2.81-5.17,3.15c-10.27,1.63-15.4,2.51-25.64,4.41Z"/>
    <path class="cls-1" d="M408.28,20.5c2.65,7.58,3.96,11.37,6.56,18.96-4.92-.25-7.39-.36-12.32-.55-11.18,1.5-22.32,3.1-33.47,4.82-.95.98-1.43,1.48-2.38,2.46,2.14,13.27,4.29,26.54,6.43,39.82,1.17.64,1.76.97,2.93,1.61,3.59-.57,5.38-.85,8.98-1.39,4.22-1.54,6.33-2.3,10.57-3.8,1.24,8.8,1.85,13.2,3.09,22-4.4-.29-6.6-.42-11.02-.66-3.53.53-5.3.81-8.83,1.37-.89.97-1.34,1.46-2.23,2.44l8.19,50.69c1.62,3.29,2.43,4.94,4.03,8.24-10.34,1.64-15.5,2.53-25.8,4.44.41-3.65.62-5.47,1.04-9.12-7.46-40.84-14.92-81.68-22.38-122.52-1.8-3.16-2.71-4.74-4.53-7.9,23.64-4.26,47.31-7.89,71.14-10.91M406.83,8.61c-24.07,3.05-47.99,6.72-71.87,11.02-4.99.92-9.37,3.52-11.84,7-2.47,3.48-2.74,7.43-.8,10.71,1.54,2.59,2.3,3.89,3.83,6.48,7.83,39.74,15.67,79.47,23.5,119.21-.31,3.05-.47,4.57-.77,7.61-.37,3.73,1.31,7.27,4.5,9.62,3.19,2.35,7.54,3.25,11.81,2.46,10.18-1.89,15.28-2.76,25.49-4.39,4.29-.68,8.08-2.98,10.29-6.26,2.22-3.28,2.61-7.18,1.02-10.57-1.3-2.77-1.95-4.15-3.27-6.92-1.88-12.79-3.77-25.58-5.65-38.37,1.39.08,2.08.13,3.47.22,1.26.08,2.53.03,3.77-.14,3.23-.45,6.29-1.74,8.69-3.7,3.33-2.73,5.03-6.46,4.56-10.15-1.11-8.82-1.67-13.23-2.78-22.05-.46-3.68-3.1-6.88-7.16-8.63-2.93-1.27-6.37-1.67-9.73-1.2-1.3.18-2.58.49-3.82.94-1.36.48-2.05.73-3.41,1.22-1.13-7.66-1.69-11.48-2.82-19.14,7.38-1.09,11.07-1.6,18.46-2.56,4.19.16,6.29.26,10.47.46,1.16.06,2.32.01,3.46-.12,3.94-.47,7.66-2.03,10.37-4.45,3.5-3.12,4.88-7.26,3.63-11.08-2.49-7.63-3.75-11.44-6.3-19.05-1.89-5.63-9.15-9.13-17.11-8.16h0Z"/>
  </g>
  <g>
    <path class="cls-2" d="M458.78,163.87c-2.07.18-4.11-.41-5.58-1.63-1.46-1.22-2.21-2.94-2.02-4.71.38-3.54.57-5.32.96-8.86-11.29-38.66-23.31-77.06-36.08-115.26-2.64-4.47-3.98-6.7-6.66-11.15-1.04-1.71-.87-3.76.46-5.49,1.33-1.73,3.66-2.94,6.26-3.24,9.9-1.15,19.83-2.15,29.76-3.02,2.45-.22,4.84.41,6.49,1.69,1.65,1.28,2.39,3.08,2.01,4.89-.42,2-.62,3.01-1.04,5.01,4.16,14.75,8.24,29.51,12.23,44.3,1.74-15.19,3.56-30.37,5.46-45.54-.78-1.88-1.17-2.82-1.95-4.7-.72-1.74-.32-3.67,1.12-5.23,1.44-1.55,3.74-2.56,6.24-2.71,10.02-.64,20.06-1.13,30.1-1.48,2.62-.09,5.1.76,6.67,2.28,1.57,1.52,2.03,3.52,1.25,5.38-1.99,4.72-2.97,7.08-4.91,11.81-6.74,39.73-12.74,79.55-17.98,119.5.92,3.45,1.37,5.18,2.28,8.63.45,1.72-.03,3.53-1.29,4.96s-3.19,2.32-5.27,2.44c-9.51.56-19.02,1.28-28.51,2.13Z"/>
    <path class="cls-1" d="M506.76,12.74c-2.04,4.93-3.05,7.4-5.04,12.34-6.56,40.27-12.36,80.63-17.39,121.12,1.05,3.83,1.56,5.74,2.6,9.57-9.56.57-19.14,1.28-28.68,2.15.45-3.94.68-5.91,1.14-9.85-11.15-39.22-23.06-78.18-35.73-116.94-2.72-4.66-4.09-6.99-6.86-11.63,9.85-1.14,19.73-2.14,29.6-3-.49,2.44-.74,3.66-1.22,6.11,8.18,28.24,16.01,56.56,23.49,84.99,3.14-29.23,6.65-58.4,10.52-87.55-.94-2.34-1.42-3.51-2.37-5.84,9.97-.63,19.96-1.12,29.95-1.47M506.33.76c-10.09.35-20.18.85-30.25,1.48-5.02.31-9.65,2.34-12.51,5.46-1.02,1.11-1.78,2.32-2.26,3.57-.7-1.22-1.68-2.34-2.93-3.32-3.3-2.58-8.1-3.84-13.03-3.4-9.98.87-19.96,1.88-29.91,3.03-5.22.6-9.9,3.04-12.55,6.52-2.65,3.48-2.94,7.57-.85,10.99,2.61,4.26,3.9,6.39,6.47,10.67,12.86,37.64,25,75.48,36.41,113.58-.33,3.15-.49,4.72-.8,7.87-.36,3.54,1.16,6.97,4.09,9.39s6.99,3.6,11.11,3.23c9.43-.85,18.89-1.56,28.34-2.12,4.13-.25,7.96-2.02,10.5-4.85,2.54-2.83,3.52-6.45,2.64-9.9-.78-3.07-1.18-4.61-1.97-7.69,5.46-39.42,11.64-78.69,18.56-117.88,1.89-4.52,2.84-6.77,4.77-11.28,1.58-3.69.69-7.71-2.44-10.77-3.13-3.06-8.13-4.78-13.38-4.59h0ZM461.5,21.67c.18-.86.27-1.29.46-2.14.38.89.56,1.33.94,2.22-.17,1.39-.25,2.08-.42,3.47-.39-1.42-.59-2.13-.98-3.55h0Z"/>
  </g>
  <g>
    <path class="cls-2" d="M557.59,159.92c-2.17-.02-4.22-.88-5.55-2.34-1.33-1.46-1.81-3.35-1.27-5.14.57-1.9.85-2.85,1.42-4.75-1.88-9.32-2.84-13.98-4.81-23.29-4.59,0-6.88.02-11.46.08-1.77,9.37-2.63,14.05-4.32,23.42.54,1.93.8,2.9,1.34,4.83.49,1.76,0,3.62-1.32,5.06-1.32,1.43-3.32,2.29-5.45,2.34-10.37.23-15.56.41-25.92.91-2.27.11-4.45-.71-5.86-2.2-1.41-1.5-1.88-3.49-1.24-5.35,1.62-4.77,2.44-7.16,4.11-11.92,6.36-40.49,13.57-80.8,21.63-120.99-.92-2.72-1.39-4.08-2.32-6.79-.61-1.76-.09-3.65,1.41-5.12,1.5-1.47,3.82-2.36,6.3-2.41,10.98-.18,21.93-.25,32.91-.22,2.48.02,4.81.88,6.33,2.33,1.52,1.45,2.06,3.33,1.48,5.1-.9,2.73-1.34,4.09-2.23,6.82,8.68,40,16.52,80.14,23.5,120.47,1.81,4.81,2.7,7.22,4.47,12.04.68,1.86.25,3.87-1.14,5.4-1.39,1.53-3.56,2.38-5.84,2.3-10.46-.36-15.69-.48-26.15-.57Z"/>
    <path class="cls-1" d="M557.13,12.01c-1.03,3.2-1.54,4.81-2.56,8.01,9.09,40.5,17.31,81.14,24.66,121.99,1.91,4.99,2.86,7.48,4.72,12.48-10.52-.36-15.78-.48-26.3-.57.73-2.38,1.09-3.58,1.83-5.96-2.11-10.85-3.19-16.28-5.42-27.12-1.18-.98-1.77-1.47-2.96-2.44-7.6-.02-11.39,0-18.99.13-1.17.99-1.76,1.49-2.93,2.48-1.99,10.87-2.96,16.31-4.83,27.18.68,2.37,1.02,3.56,1.69,5.94-10.43.23-15.65.41-26.08.91,1.71-4.94,2.58-7.41,4.34-12.35,6.72-41,14.31-81.82,22.76-122.5-1.06-3.19-1.59-4.79-2.67-7.98,10.92-.17,21.82-.25,32.74-.22M535.32,100.57c4.75-.06,7.12-.08,11.87-.08.93-.6,1.39-.9,2.33-1.49-2.71-12.65-5.52-25.27-8.41-37.88-2.73,12.64-5.36,25.31-7.89,37.99.85.59,1.27.88,2.12,1.47M557.22.03c-11.03-.03-22.05.05-33.08.23-4.98.1-9.64,1.91-12.64,4.86-2.99,2.96-3.99,6.74-2.75,10.26.79,2.24,1.18,3.37,1.96,5.61-7.66,39.69-14.5,79.49-20.52,119.47-1.57,4.6-2.35,6.9-3.88,11.5-1.25,3.74-.27,7.71,2.55,10.69,2.83,2.97,7.16,4.6,11.67,4.38,10.3-.49,15.46-.67,25.77-.9,4.24-.09,8.23-1.8,10.87-4.65,2.64-2.85,3.65-6.56,2.7-10.1-.4-1.49-.6-2.23-1-3.72,1.13-6.05,1.71-9.07,2.88-15.12,1.29,5.97,1.92,8.96,3.17,14.94-.41,1.41-.62,2.12-1.03,3.53-1.05,3.58-.06,7.37,2.61,10.27,2.67,2.9,6.74,4.61,11.06,4.64,10.4.09,15.6.2,25.99.56,4.54.16,8.86-1.54,11.65-4.58,2.79-3.04,3.68-7.05,2.34-10.78-1.67-4.64-2.51-6.96-4.23-11.6-6.63-39.81-14.08-79.44-22.37-118.94.75-2.25,1.13-3.38,1.88-5.63,1.19-3.53.14-7.3-2.89-10.22S562.2.07,557.22.03h0Z"/>
  </g>
  <g>
    <path class="cls-2" d="M591.43,160.78c-2.18-.09-4.21-1.03-5.49-2.55-1.28-1.52-1.68-3.44-1.06-5.22,1.08-3.1,1.63-4.65,2.72-7.75,1.55-40.98,3.1-81.96,4.66-122.94-.98-3.26-1.47-4.89-2.46-8.14-.55-1.81.05-3.7,1.63-5.1,1.59-1.4,3.99-2.17,6.49-2.06,9.95.41,19.91.95,29.84,1.64,2.47.17,4.76,1.17,6.18,2.71,1.43,1.54,1.85,3.45,1.16,5.19-1.26,3.16-1.89,4.74-3.14,7.89-2.62,36.14-5.24,72.29-7.87,108.43,9.97.72,14.95,1.14,24.9,2.1,4.18-.36,6.27-.53,10.46-.86.54-.04,1.07-.03,1.6.03,1.82.2,3.54.96,4.77,2.16,1.59,1.55,2.18,3.62,1.58,5.53-2.43,7.69-3.63,11.54-6,19.24-.87,2.83-4.04,4.62-7.49,4.26-20.81-2.05-41.61-3.58-62.5-4.58Z"/>
    <path class="cls-1" d="M627.36,14.64c-1.34,3.43-2.01,5.14-3.34,8.57-2.47,37.7-4.94,75.4-7.41,113.1.94.88,1.4,1.33,2.34,2.21,10.1.67,20.21,1.51,30.29,2.5,4.47-.39,6.71-.57,11.2-.91-2.38,7.71-3.55,11.56-5.87,19.28-20.94-2.06-41.86-3.6-62.87-4.6,1.21-3.39,1.81-5.08,3.04-8.47,1.86-41.47,3.72-82.95,5.58-124.42-1.04-3.56-1.57-5.34-2.63-8.9,9.9.4,19.8.95,29.69,1.63M628.17,2.69c-9.98-.69-19.99-1.24-29.99-1.65-5.04-.21-9.86,1.33-13.03,4.16-3.17,2.82-4.34,6.6-3.21,10.22.92,2.95,1.38,4.43,2.29,7.39-1.25,40.48-2.5,80.96-3.75,121.45-.97,2.81-1.46,4.22-2.42,7.03-1.22,3.56-.39,7.4,2.18,10.42,2.57,3.02,6.6,4.88,10.94,5.06,20.77,1,41.44,2.51,62.13,4.55,6.85.72,13.18-2.84,14.96-8.48,2.42-7.69,3.65-11.53,6.13-19.2,1.23-3.8.09-7.96-3.1-11.07-2.47-2.42-5.92-3.96-9.59-4.35-1.06-.11-2.14-.13-3.22-.05-3.89.3-5.84.46-9.72.8-6.78-.65-10.17-.95-16.96-1.49,2.7-33.9,5.39-67.81,8.09-101.71,1.16-2.89,1.75-4.33,2.92-7.22,1.41-3.46.59-7.29-2.26-10.39-2.85-3.1-7.43-5.12-12.41-5.46h0Z"/>
  </g>
  <g>
    <path class="cls-2" d="M754.94,181.09c-2.05-.43-3.84-1.59-4.89-3.19-1.05-1.6-1.26-3.47-.55-5.11,1.21-2.8,1.81-4.2,3.03-6.99.29-10.73.54-21.46.76-32.2-1.99,10.1-3.98,20.19-5.96,30.29.36,3.27.53,4.9.88,8.17.2,1.87-.64,3.65-2.24,4.83-1.6,1.18-3.8,1.62-5.95,1.21-10.23-1.97-15.35-2.88-25.62-4.59-2.16-.36-4.06-1.54-5.15-3.2-1.09-1.66-1.25-3.62-.42-5.31,1.45-2.95,2.18-4.42,3.65-7.36,6.53-40.48,13.06-80.97,19.6-121.45-.58-3.35-.87-5.03-1.46-8.38-.33-1.87.5-3.66,2.25-4.86,1.75-1.2,4.23-1.66,6.71-1.25,20.82,3.56,41.51,7.57,62.15,12.04,2.09.46,3.95,1.51,5.2,2.92,3.98,4.51,5.95,6.77,9.86,11.3,1.25,1.46,1.74,3.16,1.37,4.73-4.85,20.15-9.7,40.3-14.54,60.46-.37,1.54-1.51,2.84-3.16,3.6-4.01,1.86-6.01,2.79-9.99,4.69-.78,16.77-1.67,33.54-2.73,50.29.45,3.61.68,5.41,1.11,9.01.23,1.93-.62,3.76-2.28,4.94s-3.94,1.57-6.13,1.05c-10.16-2.39-15.25-3.52-25.46-5.64ZM769.59,90.47l6.46-31.62c-3.09-.63-4.64-.94-7.74-1.55l-6.24,31.67c3.01.59,4.51.89,7.52,1.51Z"/>
    <path class="cls-1" d="M800.41,39.59c3.99,4.48,5.96,6.73,9.86,11.25l-14.12,60.56c-5.26,2.45-7.88,3.7-13.08,6.22-.72,17.94-1.56,35.87-2.53,53.8.5,3.8.75,5.69,1.23,9.49-10.22-2.4-15.34-3.54-25.61-5.67,1.38-3.15,2.07-4.72,3.47-7.86.6-17.56,1.08-35.13,1.44-52.7-.61-.81-.91-1.21-1.52-2.02-2.77-.55-4.16-.82-6.93-1.36-1.17.61-1.76.92-2.93,1.53-3.19,16.82-6.38,33.63-9.57,50.45.42,3.58.62,5.36,1.02,8.94-10.29-1.98-15.45-2.9-25.77-4.61,1.61-3.22,2.42-4.82,4.05-8.03,6.9-40.94,13.8-81.88,20.7-122.82-.6-3.66-.91-5.49-1.53-9.15,20.71,3.54,41.29,7.53,61.83,11.98M755.96,93.88c6.96,1.34,10.43,2.03,17.38,3.48,1.2-.59,1.8-.88,3-1.47,2.77-13.09,5.54-26.19,8.3-39.28-.9-1.03-1.35-1.54-2.26-2.57-7.22-1.51-10.84-2.23-18.08-3.62-1.23.6-1.85.9-3.07,1.5-2.49,13.15-4.99,26.3-7.48,39.44.88,1,1.32,1.51,2.2,2.51M803.01,27.89c-20.75-4.5-41.54-8.53-62.47-12.1-4.99-.83-9.98.12-13.47,2.53-3.5,2.42-5.12,6.02-4.44,9.75.56,3.05.83,4.57,1.38,7.61-6.17,40.03-12.35,80.06-18.52,120.09-1.31,2.67-1.96,4.01-3.26,6.69-1.64,3.38-1.29,7.3.91,10.61,2.19,3.31,5.98,5.65,10.27,6.36,10.21,1.69,15.3,2.6,25.47,4.56,2.67.51,5.36.36,7.8-.39,1.96,1.63,4.39,2.8,7.05,3.36,10.15,2.11,15.21,3.23,25.31,5.6,4.37,1.03,8.89.26,12.22-2.08,3.33-2.34,5.07-5.99,4.63-9.84-.39-3.42-.59-5.12-1-8.54,1.08-15.59,2.03-31.18,2.87-46.78,2.75-1.29,4.13-1.93,6.9-3.2,3.29-1.51,5.58-4.08,6.35-7.16,4.99-20.12,9.98-40.23,14.97-60.35.78-3.13-.18-6.54-2.68-9.47-3.9-4.56-5.87-6.84-9.85-11.36-2.48-2.83-6.24-4.95-10.43-5.88h0Z"/>
  </g>
  <g>
    <path class="cls-2" d="M843.29,203.66c-2.1-.64-3.84-2.05-4.72-3.83s-.81-3.73.22-5.3c1.09-1.66,1.63-2.49,2.72-4.15.81-9.48,1.19-14.22,1.92-23.72-4.44-1.3-6.67-1.94-11.12-3.19-4.36,8.48-6.52,12.73-10.79,21.24-.03,2.01-.04,3.01-.07,5.02-.03,1.83-1.03,3.47-2.7,4.48s-3.86,1.26-5.94.69c-10.1-2.73-15.16-4.02-25.31-6.49-2.22-.54-4.09-1.94-5.03-3.77-.94-1.83-.83-3.88.31-5.49,2.91-4.12,4.38-6.17,7.33-10.27,17.58-37.04,35.92-73.67,55.06-109.93-.13-2.87-.19-4.3-.33-7.17-.09-1.86.94-3.53,2.81-4.51,1.86-.98,4.36-1.18,6.77-.53,10.68,2.96,21.31,6.01,31.93,9.16,2.4.72,4.42,2.22,5.48,4.04,1.06,1.83,1.06,3.78,0,5.32-1.64,2.36-2.46,3.54-4.09,5.9-2.88,40.86-6.61,81.6-11.22,122.3.4,5.14.59,7.7.94,12.83.14,1.98-.85,3.79-2.63,4.85-1.78,1.07-4.13,1.26-6.32.53-10.05-3.34-15.09-4.95-25.2-8.02Z"/>
    <path class="cls-1" d="M884.61,61.63c-1.9,2.78-2.85,4.17-4.74,6.96-2.63,41.45-6.13,82.79-10.54,124.08.45,5.33.66,8,1.05,13.33-10.11-3.36-15.18-4.98-25.35-8.07,1.38-2.08,2.07-3.12,3.46-5.19,1.02-11.01,1.5-16.53,2.4-27.56-.87-1.27-1.31-1.91-2.18-3.18-7.35-2.18-11.04-3.24-18.42-5.29-1.42.62-2.12.92-3.53,1.54-4.99,9.86-7.46,14.8-12.35,24.7-.01,2.47-.02,3.71-.04,6.18-10.16-2.74-15.25-4.05-25.46-6.52,3.05-4.26,4.58-6.38,7.67-10.61,18.07-37.43,36.93-74.43,56.59-111.05-.12-3.36-.19-5.05-.33-8.41,10.62,2.94,21.2,5.97,31.76,9.11M838.48,140.37c4.61,1.29,6.91,1.95,11.51,3.3,1.07-.31,1.6-.46,2.68-.77.95-12.91,1.8-25.82,2.55-38.74-6.21,11.35-12.33,22.75-18.37,34.2.65.8.98,1.2,1.63,2.01M888.08,50.17c-10.68-3.17-21.36-6.24-32.09-9.21-4.85-1.32-9.86-.91-13.59,1.08-3.73,1.99-5.76,5.33-5.56,9.06.13,2.38.19,3.56.31,5.94-18.61,35.9-36.46,72.14-53.55,108.79-2.82,3.96-4.21,5.95-6.99,9.93-2.26,3.23-2.44,7.32-.55,10.98,1.89,3.65,5.61,6.44,10.03,7.51,10.09,2.45,15.12,3.74,25.16,6.45,4.13,1.12,8.46.62,11.83-1.37,3.36-1.99,5.39-5.26,5.46-8.92.03-1.54.05-2.31.08-3.85,2.8-5.48,4.22-8.22,7.05-13.69-.44,6.1-.67,9.14-1.15,15.23-.8,1.24-1.2,1.85-2,3.09-2.02,3.14-2.14,7.05-.37,10.59,1.77,3.55,5.23,6.34,9.4,7.61,10.05,3.06,15.06,4.65,25.05,7.98,4.36,1.45,9.04,1.07,12.6-1.05,3.56-2.11,5.56-5.71,5.31-9.67-.31-4.93-.48-7.4-.83-12.34,4.8-40.1,8.76-80.25,11.88-120.52,1.36-1.95,2.04-2.92,3.41-4.86,2.15-3.05,2.2-6.97.08-10.63-2.12-3.67-6.17-6.67-10.99-8.13h0Z"/>
  </g>
  <g>
    <path class="cls-2" d="M884.93,217.31c-1.76-.62-3.25-1.79-4.16-3.26-2.9-4.72-4.37-7.07-7.35-11.77-.96-1.51-1.21-3.22-.71-4.75,13.07-39.34,26.14-78.68,39.22-118.01.51-1.53,1.83-2.71,3.67-3.29,5.74-1.78,8.62-2.65,14.42-4.36,1.81-.53,3.96-.43,6,.28,15.35,5.43,30.62,11.12,45.73,17.18,2.03.81,3.75,2.19,4.76,3.81,3.16,5.07,4.73,7.61,7.81,12.71.99,1.63,1.19,3.37.57,4.83-2.66,6.33-3.99,9.49-6.65,15.82-.2,3.32-.31,4.98-.52,8.3-.12,1.9-1.35,3.45-3.31,4.22-1.96.77-4.43.66-6.7-.28-9.05-3.77-18.16-7.41-27.31-10.92-2.32-.89-4.19-2.54-5.06-4.47-.87-1.93-.65-3.92.62-5.37,2.19-2.5,3.3-3.75,5.51-6.25.33-.87.5-1.31.83-2.18-2.99-1.13-4.48-1.7-7.47-2.81-10.97,29.51-21.94,59.03-32.91,88.54,2.74,1.02,4.11,1.53,6.85,2.57.3-.8.46-1.2.76-2.01.09-3.3.13-4.95.21-8.25.04-1.91,1.15-3.57,3-4.47,1.85-.9,4.23-.93,6.43-.09,10.39,4,15.56,6.06,25.87,10.34,2.15.89,3.85,2.54,4.59,4.44.74,1.91.44,3.85-.8,5.28-2.16,2.49-3.24,3.74-5.39,6.24-2.69,6.4-4.03,9.59-6.72,15.99-.62,1.46-1.91,2.57-3.6,3.08-5.28,1.6-7.91,2.42-13.13,4.08-1.67.53-3.6.44-5.37-.27-13.16-5.18-26.38-10.15-39.7-14.92Z"/>
    <path class="cls-1" d="M979.53,94.89c3.17,5.05,4.74,7.58,7.83,12.65-2.73,6.63-4.1,9.94-6.83,16.57-.2,3.64-.3,5.45-.51,9.08-9.1-3.79-18.26-7.45-27.46-10.98,2.44-2.74,3.66-4.11,6.12-6.85l2.57-6.62c-.74-1.17-1.1-1.75-1.84-2.91-6.96-2.68-10.45-3.99-17.45-6.56-1.32.39-1.98.59-3.3.98-11.66,32.06-23.31,64.11-34.97,96.17.66,1.12,1,1.67,1.66,2.79,6.35,2.33,9.51,3.51,15.83,5.95,1.23-.41,1.85-.61,3.09-1.01,1-2.58,1.5-3.86,2.5-6.44.12-3.64.18-5.46.29-9.1,10.33,3.97,15.48,6.03,25.72,10.28-2.35,2.74-3.52,4.12-5.86,6.87-2.76,6.7-4.14,10.05-6.9,16.75-5.29,1.62-7.91,2.45-13.14,4.14-13.24-5.21-26.54-10.21-39.93-15.01-2.89-4.74-4.36-7.11-7.33-11.83,13.35-39.25,26.7-78.49,40.05-117.74,5.73-1.76,8.61-2.62,14.4-4.3,15.27,5.4,30.46,11.06,45.49,17.1M983.97,83.77c-15.19-6.1-30.53-11.82-45.96-17.27-4.08-1.44-8.42-1.63-12.04-.55-5.8,1.73-8.69,2.61-14.44,4.42-3.69,1.16-6.31,3.55-7.31,6.61-12.8,39.43-25.59,78.86-38.39,118.29-.99,3.06-.46,6.48,1.46,9.48,2.98,4.68,4.46,7.02,7.36,11.72,1.81,2.93,4.78,5.26,8.28,6.49,13.24,4.74,26.38,9.68,39.46,14.83,3.51,1.4,7.34,1.6,10.68.55,5.22-1.65,7.84-2.46,13.11-4.03,3.37-1.01,5.98-3.2,7.23-6.12,2.61-6.09,3.92-9.14,6.53-15.24,1.96-2.25,2.95-3.37,4.92-5.62,2.49-2.83,3.12-6.73,1.66-10.55-1.47-3.82-4.87-7.14-9.2-8.93-8.62-3.59-17.3-7.06-26.02-10.4-1.42-.55-2.88-.91-4.33-1.09,5.71-15.03,11.42-30.07,17.13-45.1,1.26.85,2.65,1.58,4.14,2.15,9.1,3.49,18.17,7.11,27.17,10.86,4.52,1.88,9.43,2.09,13.35.58,3.92-1.52,6.4-4.6,6.67-8.4.21-3,.32-4.5.52-7.51,2.58-6.03,3.87-9.04,6.46-15.06,1.25-2.92.87-6.4-1.1-9.68-3.08-5.12-4.63-7.67-7.79-12.76-2.02-3.26-5.46-6.03-9.55-7.66h0Z"/>
  </g>
  <g>
    <path class="cls-2" d="M948.2,242c-2.04-.88-3.63-2.48-4.32-4.36-.69-1.88-.39-3.82.81-5.25,2.17-2.58,3.25-3.87,5.43-6.44,16.01-37.75,32.02-75.51,48.03-113.26.2-3.33.29-4.99.47-8.32.1-1.9,1.34-3.46,3.35-4.2,2.01-.74,4.58-.59,6.93.42,22.6,9.84,44.86,20.25,66.91,31.28,3.65,1.85,5.78,5.35,5.03,8.22-2.03,7.78-3.05,11.66-5.13,19.42-.52,1.94-2.26,3.28-4.63,3.59-1.84.24-3.88-.17-5.7-1.1-.53-.27-1.04-.58-1.52-.94-3.76-2.77-5.65-4.15-9.44-6.89-8.4-4.19-16.87-8.26-25.38-12.22-4.57,9.81-9.14,19.62-13.71,29.42,1.15.53,1.72.8,2.87,1.34,4.18,1.05,6.27,1.59,10.45,2.69.64.17,1.25.4,1.84.68,1.56.76,2.91,1.89,3.81,3.25,1.23,1.87,1.47,3.93.65,5.59-3.93,7.97-5.89,11.96-9.81,19.94-.82,1.66-2.57,2.74-4.75,2.94-1.58.14-3.26-.19-4.78-.92-.57-.28-1.12-.61-1.62-.99-3.35-2.53-5.03-3.78-8.41-6.27-1.12-.52-1.67-.78-2.79-1.31-4.54,9.75-9.09,19.5-13.63,29.25,9.35,4.36,14.01,6.6,23.28,11.2,4.13,1.2,6.19,1.81,10.32,3.05.53.16,1.04.37,1.53.62,1.67.86,3.05,2.2,3.81,3.78.98,2.04.81,4.19-.44,5.75-5.09,6.36-7.62,9.55-12.65,15.95-1.83,2.33-5.51,2.84-8.69,1.23-19.14-9.56-38.47-18.59-58.08-27.15Z"/>
    <path class="cls-1" d="M1073.11,137.21c-1.97,7.79-2.97,11.68-5,19.45-4.07-3-6.11-4.49-10.21-7.45-10.35-5.08-20.73-10.06-31.18-14.93-1.36.28-2.04.42-3.39.7-5.59,12.23-11.18,24.45-16.78,36.68.64,1.19.95,1.79,1.58,2.99,3.37,1.55,5.05,2.33,8.41,3.91,4.53,1.14,6.8,1.73,11.34,2.93-3.87,8-5.8,12-9.67,20.01-3.67-2.77-5.52-4.15-9.22-6.88-3.3-1.56-4.96-2.33-8.27-3.85-1.3.3-1.95.46-3.25.77l-16.7,36.51c.58,1.17.87,1.75,1.45,2.92,9.5,4.35,18.93,8.88,28.28,13.54,4.42,1.28,6.63,1.94,11.05,3.27-5.04,6.4-7.55,9.61-12.54,16.04-19.26-9.61-38.7-18.7-58.43-27.31,2.38-2.8,3.57-4.2,5.97-6.98,16.48-38.1,32.96-76.21,49.44-114.31.24-3.64.36-5.46.58-9.1,22.48,9.79,44.63,20.14,66.56,31.12M1078.53,126.53c-22.16-11.08-44.53-21.54-67.25-31.44-4.74-2.04-9.89-2.34-13.92-.83s-6.46,4.64-6.65,8.44c-.15,3.01-.22,4.52-.38,7.53-15.55,37.4-31.09,74.8-46.64,112.2-1.96,2.35-2.94,3.53-4.9,5.89-2.39,2.89-2.95,6.77-1.56,10.51,1.39,3.74,4.56,6.93,8.62,8.67,19.49,8.51,38.71,17.49,57.74,26.99,6.32,3.2,13.65,2.21,17.34-2.42,5.08-6.36,7.63-9.53,12.76-15.86,2.52-3.1,2.89-7.41.94-11.5-1.51-3.17-4.27-5.88-7.64-7.61-.98-.5-2-.92-3.07-1.24-3.83-1.15-5.75-1.72-9.58-2.83-6.34-3.14-9.52-4.69-15.9-7.72,3.29-6.93,4.94-10.4,8.23-17.34,1.24.93,1.86,1.39,3.1,2.32,1.01.76,2.1,1.42,3.23,1.97,3.01,1.46,6.35,2.13,9.51,1.85,4.35-.38,7.87-2.52,9.53-5.82,3.98-7.95,5.97-11.92,9.96-19.86,1.66-3.31,1.21-7.44-1.25-11.19-1.79-2.73-4.5-5.02-7.64-6.54-1.18-.57-2.42-1.03-3.7-1.37-1.56-.41-2.34-.61-3.9-1.01,3.32-7,4.99-10.5,8.31-17.51,6.88,3.27,10.31,4.93,17.15,8.32,3.48,2.51,5.22,3.78,8.68,6.33.96.71,1.97,1.33,3.02,1.87,3.63,1.85,7.68,2.67,11.35,2.21,4.74-.59,8.24-3.24,9.31-7.12,2.13-7.74,3.19-11.62,5.26-19.39,1.54-5.74-2.72-12.79-10.06-16.51h0Z"/>
  </g>
</svg>