<?xml version="1.0" encoding="UTF-8"?>
<svg id="assets" xmlns="http://www.w3.org/2000/svg" viewBox="0 0 471.66 224.47">
  <defs>
    <style>
      .cls-1 {
        fill: #436ba7;
      }
    </style>
  </defs>
  <path class="cls-1" d="M9.21,156.45s4.57,23.55,14.36,34.52c-.27,9.08,3.22,18.22,10.42,24.87,13.2,12.19,33.78,11.37,45.97-1.83,8.26-8.95,10.53-21.29,7.03-32.11,23.18-2.94,47.9-4.71,73.05-5.62-.81,9.66,2.65,19.57,10.32,26.65,13.2,12.19,33.78,11.37,45.97-1.83,6.6-7.15,9.35-16.47,8.42-25.44,6.65.09,13.27.23,19.83.4-2.98,11.28.2,23.79,9.36,32.25,13.2,12.19,33.78,11.37,45.97-1.83,7.14-7.73,9.78-18,8.12-27.62,12.53.76,24.51,1.6,35.76,2.47-3.95,11.77-.96,25.28,8.75,34.25,13.2,12.19,33.78,11.37,45.97-1.83,6.89-7.46,9.62-17.29,8.3-26.62,16.97,1.82,26.87,3.12,26.87,3.12l-.54-2.53c.25,1,.44,1.86.54,2.53,18.78,3.75,30.8-20.41,36.27-34.89.27-.7.44-1.48.63-2.2,3.06-89.78-72.76-111.87-78.68-120.43-5.25-7.6,17.92-50.34-56.17-24.5-6.85,37.76-10.95,69.97-13.6,109.13-.58-32.63.85-111.33-7.01-116.25C268.89,3.5,26.94,6.15,12.13,9.39c-4.23.93-8.48,2.4-12.13,4.86l9.21,142.2"/>
</svg>