<?xml version="1.0" encoding="UTF-8"?>
<svg id="assets" xmlns="http://www.w3.org/2000/svg" viewBox="0 0 453.54 226.77">
  <defs>
    <style>
      .cls-1 {
        fill: #dc5f2c;
      }
    </style>
  </defs>
  <path class="cls-1" d="M11.37,157.63s4.67,23.76,14.17,34.84c-.15,9.16,3.31,18.38,10.28,25.1,12.79,12.31,32.5,11.51,44.02-1.78,7.81-9.01,9.83-21.46,6.34-32.37,22.17-2.93,45.83-4.68,69.92-5.56-.66,9.74,2.77,19.74,10.21,26.9,12.79,12.31,32.5,11.51,44.02-1.78,6.24-7.2,8.76-16.59,7.76-25.65,6.38.1,12.72.25,19.01.43-2.72,11.37.48,23.99,9.36,32.54,12.79,12.31,32.5,11.51,44.02-1.78,6.75-7.79,9.15-18.13,7.44-27.85,12.02.78,23.5,1.65,34.29,2.54-3.64,11.87-.62,25.5,8.8,34.56,12.79,12.31,32.5,11.51,44.02-1.78,6.51-7.52,9-17.42,7.63-26.83,16.28,1.86,25.78,3.18,25.78,3.18l-.55-2.55c.26,1.01.45,1.88.55,2.55,18.04,3.81,29.26-20.54,34.33-35.14.25-.71.4-1.49.58-2.22,1.84-90.55-71.07-112.93-76.85-121.58-5.13-7.67,16.55-50.75-54.12-24.79-6.11,38.08-9.65,70.55-11.71,110.04-.95-32.91-.54-112.28-8.13-117.25C258.31,3.74,26.53,6.06,12.39,9.31c-4.05.93-8.1,2.41-11.57,4.88l10.55,143.43"/>
</svg>