<?xml version="1.0" encoding="UTF-8"?>
<svg id="assets" xmlns="http://www.w3.org/2000/svg" viewBox="0 0 459.9 259.91">
  <defs>
    <style>
      .cls-1 {
        fill: #208a3a;
      }
    </style>
  </defs>
  <path class="cls-1" d="M0,145.51s1.51,23.94,9.8,36.08c-1.43,8.97.85,18.49,7.14,26,11.52,13.78,32.04,15.61,45.82,4.09,9.34-7.81,13.18-19.76,11.09-30.94,23.36.06,48.1,1.48,73.17,3.81-2.05,9.47.11,19.75,6.81,27.76,11.52,13.78,32.04,15.61,45.82,4.09,7.47-6.24,11.39-15.13,11.62-24.15,6.59.95,13.13,1.93,19.62,2.95-4.41,10.8-2.86,23.61,5.14,33.18,11.53,13.78,32.04,15.61,45.82,4.09,8.07-6.75,12.01-16.59,11.6-26.35,12.33,2.36,24.1,4.73,35.14,7.04-5.43,11.17-4.2,24.95,4.28,35.09,11.52,13.78,32.04,15.61,45.82,4.09,7.79-6.52,11.76-15.91,11.65-25.33,16.59,3.99,26.25,6.54,26.25,6.54l-.21-2.58c.12,1.02.2,1.9.21,2.58,18.14,6.13,33.16-16.28,40.46-29.95.35-.66.62-1.41.91-2.1,14.57-88.65-57.79-120.29-62.56-129.54-4.23-8.21,24.23-47.62-52.56-31.51-11.65,36.57-19.85,67.98-27.51,106.48,3.62-32.43,15.14-110.29,7.98-116.19C277.18,27.18,36.89-1.27,21.79.04c-4.32.38-8.72,1.29-12.66,3.26L0,145.51"/>
</svg>